<svg id="Layer_1" data-name="Layer 1" xmlns="http://www.w3.org/2000/svg" viewBox="0 0 750 350"><defs><style>.cls-1{fill:#3a5969;}.cls-2{fill:#38a2bc;}.cls-3{fill:#4a4a4a;}.cls-4{fill:#4b4b4b;}.cls-5{fill:#4c4c4c;}.cls-6{fill:#fefefe;}.cls-7{fill:#3b5969;}.cls-8{fill:#fcfcfc;}.cls-9{fill:#f6f6f6;}.cls-10{fill:#f8f8f8;}.cls-11{fill:#f2f2f2;}</style></defs><path class="cls-1" d="M12,238.82A151.67,151.67,0,0,1,1.24,196.28c-5.18-47,5.82-89.86,34.3-127.45C64.88,30.11,103.88,7.38,151.69,1.36c89.2-11.23,171.06,48.24,190,137.93a170,170,0,0,1-7.22,96.37c-1.16,1.92-3.06,2.27-5.07,2.54-17.94,2.45-35.71,1-53.4-2.33-2.24-.42-4.66-.68-6.13-2.88,1-2.76,3.45-2,5.43-2.23,3-.34,6.08.49,8.94-.73,1.27-1.6.6-3.22.25-4.75-7.61-32.84-15.84-65.53-23.55-98.34-.68-2.92-2.19-4.39-5.19-4.37s-5.72,0-8.59,0c-8.48,0-8.49,0-10.5,8.12q-8.64,34.83-17.2,69.67c-.65,2.62-1,5.36-2.6,7.67a3,3,0,0,1-4,.4c-4.87-3-10.13-5.51-12.89-11-1-6.13-.39-12.31-.48-18.47-.12-8.24-.05-8.19-7.94-8.28-5.55-.06-11.11.36-16.63-.32-1.63-.07-2.65-1.75-4.59-1.73-4.79,6.06-9.35,12.52-15.25,17.73-1.42,1.26-2.66,3.73-5.24,1.8-3.16-12.79-1.42-25.21,2.94-37.35,6-16.59,21.26-20.59,33.48-11.17,2.32,1.79,4.2,1.63,6-.71,1-1.3,2-2.59,3.06-3.8,2.27-2.58,1.82-4.67-.63-7-13-12.19-36.34-10.65-48,3.12-10,11.8-12.81,26-14.08,40.9-.87,10.26,1.65,20.19,2.84,30.26-3,6.86-9.68,9.07-15.38,12.5-1,.59-2.07,0-2.59-1.16-.75-2-.09-3.93.17-5.9,2.11-15.72-3.19-26.69-16.8-34.56-3.58-2.07-7.19-4.09-10.73-6.22-8.93-5.39-12.32-13.69-9.41-22.51a15.26,15.26,0,0,1,20.29-9.72,21.28,21.28,0,0,1,5.25,2.72c2.77,2.07,4.67,1.4,6.8-1.18,6-7.32,5.87-8.61-2.55-13-11.28-5.86-27.76-4.08-36.45,4-8.9,8.22-12.17,24.27-7.31,36.36,2.67,6.65,7.52,11.35,13.49,15s12.5,6.38,17.46,11.61c5.21,5.49,6.57,15.66,2.78,21.6-4.32,6.78-11,8.89-19.3,6.17a22,22,0,0,1-8.53-4.45c-2.44-2.27-4.29-1.55-6.28.85-5.91,7.11-5.7,8.52,2,13.62,2.26,1.51,5.64,1.82,6.26,5.35-1.16,2.86-3.91,3-6.25,3.52a178.17,178.17,0,0,1-48.94,4.43A13.21,13.21,0,0,1,12,238.82Z"/><path class="cls-2" d="M270.12,232.42c6.27,2.76,13.08,3,19.69,4.07,9.72,1.62,19.59,1.49,29.39,1,5.11-.23,10.31-.46,15.31-1.88-15.31,41.55-42.44,72.71-80.84,93.79a165.62,165.62,0,0,1-87.93,20.4C96.5,347,37.21,303,12.25,239.86a7.49,7.49,0,0,1-.25-1c20.09,2.54,39.87.68,59.44-4.27,1.24-.32,2.53-.28,2.89-1.87,1.5-1.18,3.07-.45,4.62-.19,18,3,27.28-1.3,37-17.19.48-.78,1-1.52,2-1.57.46.17,1.1.63,1.35.47,5.35-3.46,11.17-6.27,15.38-11.32,2.87.64,2.84,3.4,3.72,5.41,11.08,25.4,33.59,29.35,54.34,20.57,5-2.13,7.58-5.52,7.07-11.33a122.83,122.83,0,0,1-.05-13.57c0-1.94-.24-4.05,1.58-5.5,4.8,3.38,8.89,7.84,14.56,9.91,1.69,3.7-.43,7-1.05,10.5-.67,3.72-1.95,7.31-2.7,11.42,4.28.9,8.49.45,12.66.29,2.4-.1,3.06-2.08,3.7-4.05.87-2.69.73-5.83,3.2-7.86,2.89-1.09,5.12.73,7.48,1.83,9.19,4.31,18.54,8.09,28.57,9.91A2.7,2.7,0,0,1,270.12,232.42Z"/><path class="cls-3" d="M654.55,210.18H643.89c0-6.19,0-12.13,0-18.08,0-2.17-.21-4.34-.34-6.51-.1-1.6-.8-2.89-2.41-3.18-1.86-.34-3.1.88-3.75,2.44-.85,2-.75,4.26-.76,6.44v18.87a45.57,45.57,0,0,1-10.57,0c0-6.4,0-12.53,0-18.66a30.48,30.48,0,0,0-.68-6.46c-.29-1.4-1-2.4-2.32-2.63-1.63-.28-2.64.72-3.45,2-1.11,1.81-1,3.84-1,5.81,0,6.5,0,13,0,19.84H608.22V174.84c6.88-1.71,9-1.29,10.8,2.07,6.69-6.1,11.8-5.7,16.67,1.42a26.2,26.2,0,0,1,2.85-3.23c5.87-4.82,13.74-2,15,4.35a57.06,57.06,0,0,1,1,10.22C654.63,196.36,654.55,203.06,654.55,210.18Z"/><path class="cls-3" d="M434.46,173.58c-5.62-5.55-12.29-3.64-14.51,4.55a27.18,27.18,0,0,0,.45,16.59c2,5.59,4.23,6.77,10.48,5.53,1-2.71.35-5.61.48-8.37-1.28-1.88-3.48-.42-5.06-1.49v-8.95h14.77v18.67c0,8.32-1.27,9.84-9.39,11.19-9.52,1.58-17.62-2.8-21.12-11.94-3.88-10.11-3.79-20.31,1.31-30,5.89-11.18,19-13,28.23-3.86C438.87,168.43,436.7,170.75,434.46,173.58Z"/><path class="cls-3" d="M516.6,91.35V73a43.38,43.38,0,0,1,10.31.11v52.24c-3.77-.74-7.91,2.12-10.94-2.25-6.54,5.61-13.21,4.12-16.62-4.3a32.14,32.14,0,0,1-.66-22.41C501.48,87.74,508.47,85.67,516.6,91.35Z"/><path class="cls-3" d="M418.43,294.21H407.88c3.93-16.4,7.79-32.52,11.67-48.75,4.67-.7,9.1-.26,13.95-.34,3.92,16.36,7.78,32.51,11.73,49h-11.1c-1.47-2.35-1.24-5.42-2.44-8.31-3.36-.65-6.72-.22-10.16-.28C419.28,287.94,420.28,291.52,418.43,294.21Z"/><path class="cls-3" d="M406.52,120.92l5.2-7.74c2.21,1.09,4,2.16,6,2.91a4.56,4.56,0,0,0,6.06-2,5,5,0,0,0-1.35-6.81,33.16,33.16,0,0,0-5.47-3.41c-6.35-3.27-8.88-8.52-8.28-15.59.5-6,3.42-10.38,9-12.38,6.49-2.34,12.6-1.34,18.17,3.73l-5.13,7.52c-2.27.15-3.29-1.84-5.13-2-2.45-.25-4.8-.31-5.91,2.41-1,2.38-.67,4.69,1.54,6.31a58.34,58.34,0,0,0,5,3.14c8.74,5.16,11.6,13.81,7.25,22.05-3.82,7.25-13.11,9.74-21.62,5.77A13.8,13.8,0,0,1,406.52,120.92Z"/><path class="cls-3" d="M578.94,125.21H568.45V89.42c8.78-1,9-1,10.6,2.58,1.64-.08,2-1.79,3.13-2.56,5.41-3.72,11.75-1.65,13.82,4.67a27.3,27.3,0,0,1,1.21,8.59c0,7.4,0,14.8,0,22.44H586.43c0-5.94,0-12,0-18.12,0-2.36.16-4.72-.55-7-.39-1.29-1-2.44-2.38-2.64-1.6-.22-2.69.72-3.48,2.06-1.06,1.8-1.07,3.8-1.07,5.8Z"/><path class="cls-3" d="M581.09,210.24h-10.5V174.45c8.91-1,9-1,10.62,2.6,1.63-.1,2-1.8,3.13-2.58,5.42-3.71,11.75-1.63,13.82,4.7a27.27,27.27,0,0,1,1.2,8.58c0,7.4,0,14.81,0,22.44H588.58V191.5A21.82,21.82,0,0,0,588,185c-.4-1.28-1-2.43-2.39-2.62-1.61-.21-2.68.73-3.47,2.07-1.06,1.81-1.07,3.81-1.07,5.81Z"/><path class="cls-3" d="M724.14,210.25H713.42V191.2a20.88,20.88,0,0,0-.5-5.95c-.42-1.47-1-2.84-2.75-2.87-1.58,0-2.57,1-3.31,2.35a10.92,10.92,0,0,0-.93,5.3c0,6.53,0,13.06,0,19.82-3.39,1.18-6.74.34-10.41.56V174.16c3.73.76,8.2-2.48,11.33,3.52a13.53,13.53,0,0,1,2.18-3c5.18-4,11.82-2,13.89,4.26a23,23,0,0,1,1.24,7.48C724.11,194.21,724.14,202,724.14,210.25Z"/><path class="cls-3" d="M698.4,294.18H688V258.11c3.74.77,8.22-2.5,11.32,3.53a13.3,13.3,0,0,1,2.21-3c5.18-4,11.81-1.94,13.88,4.28a23,23,0,0,1,1.24,7.49c0,7.78,0,15.56,0,23.67H705.88q0-9.48,0-18.92a20.93,20.93,0,0,0-.49-5.95c-.43-1.46-1-2.83-2.76-2.86-1.58,0-2.57,1-3.31,2.36a10.92,10.92,0,0,0-.92,5.3C698.39,280.52,698.4,287.06,698.4,294.18Z"/><path class="cls-3" d="M462.61,89.15a42.78,42.78,0,0,1,10.56.27c0,5.92,0,11.86,0,17.79q0,3.27.23,6.52a2.88,2.88,0,0,0,2.56,3,3.33,3.33,0,0,0,3.74-2.45,20.75,20.75,0,0,0,.89-7c0-5.93,0-11.86,0-18.1A46,46,0,0,1,491,89.3v35.87h-9.89c-.14-1.09-.28-2.14-.41-3.2-.29.07-.75,0-.9.23-2.9,4-6.8,5.44-11.34,3.88s-5.67-5.93-5.8-10.15C462.43,107.25,462.61,98.55,462.61,89.15Z"/><path class="cls-3" d="M681,276.36c-.35,4.39-1,8.67-3.26,12.49a13.62,13.62,0,0,1-23.3.49c-4.6-6.9-4.61-19.41,0-26.38a13.58,13.58,0,0,1,23.29.43C680.14,267.37,680.73,271.85,681,276.36Z"/><path class="cls-3" d="M531.42,276.36c-.35,4.39-.95,8.67-3.26,12.49a13.63,13.63,0,0,1-23.31.49c-4.59-6.9-4.6-19.41,0-26.38a13.59,13.59,0,0,1,23.3.43C530.55,267.37,531.13,271.85,531.42,276.36Z"/><path class="cls-3" d="M445.46,192.09a23.3,23.3,0,0,1,3.07-12.47c5.62-9.43,18.53-9.46,23.77.18a25,25,0,0,1,.16,24.45c-5.23,10-18.27,10-24,.32A23.12,23.12,0,0,1,445.46,192.09Z"/><path class="cls-3" d="M562.15,110H544.67c-.52,3.4.44,5.68,3.21,6.93,3.14,1.43,4.23-1.64,6-3.17,2.57,1.4,5.28,2.39,7.3,4.51-3.25,7.5-9.76,9-14.87,8.21-6.4-1-9.91-5.35-11.59-11.38a27.46,27.46,0,0,1,.86-18.11c2.61-6.47,8.14-10,14.23-9.23,6.38.82,10.66,5.2,11.68,12.29C561.94,103,561.92,106.11,562.15,110Z"/><path class="cls-3" d="M523.09,194.76c-.31,3.73.56,6,3.19,7.15,3.16,1.42,4.31-1.5,6-3.17,2.57,1.35,5.25,2.41,7.37,4.51-2.87,6.23-7.69,8.93-14.28,8.28-6.27-.62-10-4.62-11.88-10.32a27.29,27.29,0,0,1,.51-19.15c2.59-6.48,8.12-10.05,14.19-9.31,6.39.77,10.73,5.13,11.73,12.22a33.14,33.14,0,0,1,.27,9.79Z"/><path class="cls-3" d="M688.72,195.07h-17.1c-.4,3.41.48,5.76,3.4,6.91s4.08-1.34,5.77-3.33l7.59,4.21c-2.6,5.76-6.63,8.61-12.54,8.75s-10.36-2.76-12.83-8.14a26.56,26.56,0,0,1-.14-22.13c2.49-5.92,7.91-9.2,13.58-8.64,6.12.6,10.21,4.27,11.74,10.92A33.7,33.7,0,0,1,688.72,195.07Z"/><path class="cls-3" d="M605.83,294.5c-3.38-.77-6.93,1.43-9.74-2.76-.68,0-1.13,1.69-2.31,2.34a9.14,9.14,0,0,1-12-2.72c-4.77-6.6-1.83-16.22,5.88-18.72a66.72,66.72,0,0,1,8.36-1.62c-1-6-3.21-6.53-10.49-2.72-1.14-.36-1.52-1.47-2.15-2.32-.84-1.15-1.58-2.37-2.38-3.59,4.34-5,9.74-6.16,15.72-5.07,5.25.95,8.74,5.32,9,12C606.07,277.42,605.83,285.57,605.83,294.5Z"/><path class="cls-3" d="M478.38,174.29h10.68c2.44,7.46,2.74,15.5,5.38,24.19,1.63-8.66,3.05-16.22,4.49-23.86,3.54-1,6.84-.55,10.6-.45-.91,6.41-2.93,12.16-4.35,18s-3.06,11.86-4.65,17.95a75.54,75.54,0,0,1-13.2.05q-4.23-16.32-8.41-32.54C478.66,176.67,478.59,175.62,478.38,174.29Z"/><path class="cls-4" d="M733.14,173.52v-7.69c3.5-1.27,6.79-.83,10.41-.4v7.4c1.91,1.95,4.18.55,6.05,1.79.73,2.28.24,4.74.25,7-2,1.26-3.91.3-5.89,1.23a86.3,86.3,0,0,0-.2,14.92c.14,3.37.69,3.59,5.48,4.46a18.63,18.63,0,0,1,.1,7.4c-8.53,4-14.49.77-15.79-8.31-.68-4.71-.23-9.42-.36-14.13-.11-4.11-.07-4.12-4.21-5.6C729.29,178.46,726.65,174.15,733.14,173.52Z"/><path class="cls-4" d="M606.19,98.63c-1.23-1.76-2.79-1-3.92-1.92-.79-2.14-.44-4.45-.24-6.51.86-1.83,2.94-.65,3.81-2.18.8-2.29-.36-4.94.86-7.6,3-.75,6.19-.35,9.4-.28,1.1,2.83,0,5.64.84,8.11,1.67,1.26,3.64.29,5.56,1.2.93,2.23.32,4.69.38,7-1.78,1.59-3.76.35-6.08,1.63,0,4.82-.11,10.17,0,15.52.09,3.54,3.24,3.12,5.5,3.49a20.42,20.42,0,0,1-.12,7.82c-9.29,3.51-14.66.31-15.76-9.44-.32-2.87-.22-5.8-.26-8.69S606.19,101,606.19,98.63Z"/><path class="cls-4" d="M441.79,99.4c-1.33-2.75-3.39-1.48-4.37-3.11a18.69,18.69,0,0,1-.08-6c.76-1.9,2.8-.79,3.91-2.24.13-2.23.27-4.74.42-7.37,3.26-1.15,6.42-.49,10-.58.18,2.87.34,5.51.5,8.06,1.72,1.55,4,.18,5.77,1.44a18.49,18.49,0,0,1,.16,6.84c-1.59,1.77-3.91.14-6.12,1.79,0,3.86.11,8.17,0,12.46-.13,4.06,1,6.77,5.7,6.26a29.11,29.11,0,0,1,.13,7.71c-9.15,3.89-15,.65-15.89-9.07C441.37,109.83,441.79,104,441.79,99.4Z"/><path class="cls-4" d="M630,293.81c-9.6,3.51-15,.32-16-9.47a90.5,90.5,0,0,1-.21-13.58c.15-3.12-.64-4.88-3.95-4.73-.82-2.53-.32-4.84-.42-6.6,1.06-2.05,3.13-.87,4-2.62.13-2.22.27-4.7.43-7.39a36.63,36.63,0,0,1,9.65-.23c1.36,2.8-.06,5.65,1,8.15,1.62,1.16,3.59.19,5.46,1.11.87,2.28.35,4.73.34,7-1.83,1.45-3.78.37-6,1.43,0,5-.17,10.37.06,15.72.13,3.14,2.74,3.33,5.27,3.26C630.58,288.64,630,291.29,630,293.81Z"/><path class="cls-3" d="M497.48,261.41c-1.64,2.21-3.23,4.34-4.85,6.5-1.95-1.08-3.57-2.31-5.56-2.33-1.45,0-2.87.36-3.4,2.06s.57,2.76,1.87,3.42,3,1.08,4.49,1.75a11.66,11.66,0,0,1-1,21.73c-6.35,2.19-11.85.35-16.88-3.9a30,30,0,0,1,4.92-6.71c2.23.76,3.7,2.9,6.22,2.93,1.86,0,3.09-.53,3.67-2.38s-.36-2.83-1.71-3.52c-1.58-.81-3.31-1.34-4.93-2.08a10.75,10.75,0,0,1-6.59-11.32,11.8,11.8,0,0,1,9-10.2C488.15,256.34,493.07,257.23,497.48,261.41Z"/><path class="cls-3" d="M470.61,261.34c-1.69,2.31-3.17,4.31-4.91,6.67-1.74-1-3.29-2.27-5.23-2.39-1.75-.11-3.29.33-3.76,2.23-.44,1.73.77,2.69,2.12,3.31s3,1.09,4.5,1.74c4.61,2.06,6.75,5.91,6.7,10.8A10.77,10.77,0,0,1,463,294.24c-6.49,2.63-12.18.83-17.65-3.51a26.61,26.61,0,0,1,5-6.89c2,1,3.48,2.83,5.8,3,1.73.11,3.15-.08,3.88-2s-.26-3.14-1.79-3.94-3-1.18-4.45-1.84c-5-2.24-7.48-6.47-6.86-11.66a11.68,11.68,0,0,1,9.77-10.1A16,16,0,0,1,470.61,261.34Z"/><path class="cls-3" d="M558.59,260.58,554.82,268c-5.83-1.63-7.69-.42-8.27,5.37a27.53,27.53,0,0,0,0,5.95c.68,5.45,2.76,6.57,8.13,4.5a38,38,0,0,1,3.78,7.57c-6.69,6.29-15.64,5.17-19.76-2.8a26,26,0,0,1,.08-25C542.8,256,551.48,254.71,558.59,260.58Z"/><path class="cls-3" d="M557.45,209.61c-1.54,1.22-2.84.81-4,.79-2.09,0-4.23.4-6.53-.39V174c3.86,1.05,8.52-2.61,11.11,3.36,1.68-2.64,3.69-4.91,7.71-4.1.76,3.2-.07,6.5-.06,9.7-6.85,2-8.09,3.61-8.18,10.8C557.4,199.17,557.45,204.55,557.45,209.61Z"/><path class="cls-3" d="M562.93,294.09V258.21H573.1v35.88Z"/><path class="cls-3" d="M635.11,258.14a47.56,47.56,0,0,1,10.21.15V294c-3.23.74-6.55.28-10.21.32Z"/><path class="cls-5" d="M573.71,247.75c.12,3.75-2.16,6.34-5.63,6.39a6,6,0,0,1-6-6.19,6.06,6.06,0,0,1,5.53-6.14C571.12,241.61,573.6,244,573.71,247.75Z"/><path class="cls-5" d="M645.82,248.2c-.1,3.71-2.57,6.13-6.08,5.94a6.18,6.18,0,0,1,.42-12.33C643.62,241.84,645.92,244.44,645.82,248.2Z"/><path class="cls-6" d="M201.34,198.46c-.05,7.79-.22,15.59-.1,23.37a6.05,6.05,0,0,1-3.05,5.71C175.9,243,146,233.42,136.65,207.84c-.61-1.68-1.31-3.31-2-5-4-15.53-4.8-31.16-1.28-46.88,2.85-12.69,8.31-23.66,18.94-31.83,11.25-8.65,37-8.59,47.23,7.75a124.3,124.3,0,0,1-10.35,12.61c-4.2-4.7-8.74-8.17-15.14-8.47-6.91-.33-12.11,2.41-16.07,7.95-4.32,6.05-6.23,13-7.23,20.25a78.67,78.67,0,0,0,.07,24.41c2,1.87,2.18,4.5,2.77,6.92a39.35,39.35,0,0,0,4.45,11c4.35,7.29,11,10.18,19.19,8.58,3.27-.63,5.09-2.35,5.13-5.83.07-6,0-11.94,0-17.91,0-3.26-1.65-4.29-4.65-4.55-7.94-.7-8.2-1.11-8.24-9.18a26.85,26.85,0,0,1,.26-5.95c.38-1.71.61-3.87,3.34-2.86,4.66.06,9.31.14,14,.17,4.45,0,8.9,0,14.25,0Z"/><path class="cls-6" d="M270.12,232.42l-2-1.17c-3.44-4.28-3.37-9.74-4.69-14.71-1.64-6.16-2-6.67-8.28-6.73-4.45,0-8.92.16-13.36-.06-4.16-.19-6.93,1-7.47,5.62a5.47,5.47,0,0,1-2.07,3.68c-1.86,3.94-2.06,8.35-3.57,12.81H210.3l5.6-23.49q10.71-43.43,21.47-87.05h23.77c8.85,36.7,17.72,73.53,26.78,111.1Z"/><path class="cls-6" d="M118,213.73c-7.54,18.55-22.51,25.06-43.62,19-5.62-2.45-10.92-5.38-15.13-10.57l9.72-13.35c5,4.82,10.32,8.26,17,9.05,6,.72,11.34-1.95,14-7.07A17.55,17.55,0,0,0,95.7,190c-5-4.24-10.87-7-16.44-10.26-17.18-10.06-21.41-34.15-9.21-50.12,12.32-16.14,40.82-13.47,50.08-.24l-9.84,12.95C107,139.54,104,137,100,135.93c-7.06-1.89-13.86.39-17,5.94-3.72,6.67-2.42,15.71,3,20.44,4.93,4.3,10.89,6.94,16.44,10.26,8.21,4.9,14.33,11.55,16.37,21.23A42.58,42.58,0,0,1,118,213.73Z"/><path class="cls-2" d="M173.13,168.89c-1,.24-2.1.46-2.09,1.94,0,4.67,0,9.35,0,14.57h13.07c0,9.41,0,18.26,0,27.11,0,2.11-1.5,2.8-3,3.28-9.08,2.84-17.84,1.79-23.7-7.22a43.48,43.48,0,0,1-6.55-19.9A79.9,79.9,0,0,0,161.35,178c3.24-3.73,6.09-7.81,9.09-11.72A4.58,4.58,0,0,1,173.13,168.89Z"/><path class="cls-7" d="M232.22,219.05c-.07-3.51,1.44-6.64,2-10.18h29l4.87,22.38c-2.52,1.36-4.74-.28-7-.88C251.05,227.74,241.73,223.13,232.22,219.05Z"/><path class="cls-8" d="M507.79,107c0-2.52.08-4.67,1-6.7.73-1.56,1.71-2.92,3.49-2.89s2.85,1.39,3.41,3a20.72,20.72,0,0,1,.07,13.25c-.5,1.56-1.38,3-3.31,3.06-2.21.12-3.05-1.42-3.8-3.15C507.71,111.33,507.87,109,507.79,107Z"/><path class="cls-9" d="M426.81,257.28c1.15,6.22,2.3,12.43,3.51,18.91-2.42,1.26-4.89.39-8,.69A87.6,87.6,0,0,1,426.81,257.28Z"/><path class="cls-8" d="M661.56,276.05c.15-2.5,0-5.08,1.31-7.36,1.8-3,4.69-3.22,6.15-.12a17.44,17.44,0,0,1,0,15.14c-1.41,3.05-4.44,2.76-6.16-.28C661.91,281.84,661.56,279.75,661.56,276.05Z"/><path class="cls-8" d="M512,275.81c.17-2.44,0-4.8,1.22-7,.74-1.32,1.67-2.46,3.23-2.45a3.47,3.47,0,0,1,3.21,2.46,18.74,18.74,0,0,1-.13,14.71c-1.37,3.05-4.48,2.94-6.19,0C511.87,281.15,512.09,278.39,512,275.81Z"/><path class="cls-8" d="M464.93,192.87a14.13,14.13,0,0,1-1.18,6.36c-.64,1.35-1.44,2.47-3.13,2.54-1.95.09-3-1.11-3.53-2.71a21,21,0,0,1,0-13.75c.54-1.61,1.66-2.93,3.47-2.85s2.71,1.44,3.39,3C464.89,187.7,464.91,190,464.93,192.87Z"/><path class="cls-10" d="M544.47,102.5c-.15-3.4.72-6.33,3.94-6.29s3.78,3.06,3.5,6.11A21.7,21.7,0,0,1,544.47,102.5Z"/><path class="cls-10" d="M522.8,187.53c.19-3.55,1-6.44,4.31-6.27,3.09.15,3.49,3.05,3.34,5.94C528.06,188.21,525.66,187.69,522.8,187.53Z"/><path class="cls-10" d="M679,187.4a21.7,21.7,0,0,1-6.81.19c-.6-3.78.64-6.64,3.06-6.43C678.77,181.46,679.06,184.25,679,187.4Z"/><path class="cls-11" d="M596.35,278.7c.8,2.12.13,3.68-.22,5.22a4.28,4.28,0,0,1-4.12,3.6c-1.88.09-2.85-1.38-3.14-3.08a4.53,4.53,0,0,1,2.22-5.07A6.35,6.35,0,0,1,596.35,278.7Z"/><path class="cls-1" d="M260.74,193.79H236.63c4-18.2,7.83-36.09,11.72-54l1,.09C253.12,157.64,256.86,175.39,260.74,193.79Z"/></svg>